<svg width="127" height="23" viewBox="0 0 127 23" fill="none" xmlns="http://www.w3.org/2000/svg">
<path d="M103.263 22.7264H106.371V16.6558C106.371 13.7487 107.584 9.69591 110.862 9.69591C112.758 9.69591 113.578 11.1323 113.578 14.3643V22.7435H116.686V16.6729C116.686 12.6543 118.257 9.71301 120.989 9.71301C122.748 9.71301 123.892 10.8587 123.892 13.5606V22.7435H127V13.2357C127 9.2 125.617 6.56654 122.338 6.56654C119.691 6.56654 117.386 8.51598 116.139 12.2952L115.576 12.0558C116.361 9.79851 115.49 6.58364 112.194 6.58364C109.462 6.58364 107.532 8.72119 106.047 12.3123L105.432 12.0729C106.303 10.0208 106.371 9.3368 106.371 8.46468V6.85725H103.263V22.7264ZM85.2814 16.2625C85.2814 20.7599 87.5868 22.9829 91.0705 22.9829C94.5371 22.9829 96.6716 20.8625 98.0549 17.2885L98.6526 17.5279C97.9012 19.4773 97.7133 20.11 97.7133 21.1019V22.7093H100.821V6.78885H97.7133V12.774C97.7133 16.9294 95.203 19.9561 91.9926 19.9561C89.4994 19.9561 88.3894 18.7591 88.3894 15.339V6.77175H85.2814V16.2625ZM72.1494 9.62751H75.7526V17.7331C75.7526 21.0164 76.965 22.7264 80.7561 22.7264H83.9836V19.9048H80.6195C79.5095 19.9048 78.8606 19.255 78.8606 18.0922V9.62751H83.2151V6.80595H78.6727C77.3407 6.80595 76.8284 6.94275 75.0524 7.74647L74.8134 7.13086C77.17 6.19034 79.5436 5.40372 79.5436 1.48773H76.4357C76.4357 4.06989 74.3181 6.53234 72.1665 6.53234V9.62751H72.1494ZM55.9948 22.7264H59.1027V16.7584C59.1027 12.5859 61.5959 9.57621 64.8235 9.57621C67.3337 9.57621 68.4266 10.739 68.4266 14.1591V22.7264H71.5346V13.2699C71.5346 8.78959 69.2634 6.54945 65.7456 6.54945C62.3132 6.54945 60.1444 8.68699 58.7953 12.2781L58.1806 12.0387C58.9661 10.0892 59.1198 9.45651 59.1198 8.43049V6.82305H55.9948V22.7264ZM40.1987 13.5606C40.6257 11.0639 42.6066 9.2513 45.6121 9.2513C48.481 9.2513 50.3423 11.1494 50.701 13.5606H40.1987ZM37.0395 14.826C37.0395 18.9985 39.584 22.9658 45.5608 22.9658C51.162 22.9658 53.5186 18.9472 53.5186 17.3056H50.701C50.3253 18.6565 48.5322 20.3152 45.5779 20.3152C42.6749 20.3152 40.5744 18.742 40.1646 15.8691H53.6723C53.7235 15.51 53.7235 15.1851 53.7235 14.8431C53.7235 10.3115 50.718 6.56654 45.6291 6.56654C40.25 6.56654 37.0395 10.1405 37.0395 14.826ZM16.2229 18.1093C16.2229 16.6729 17.3671 15.7494 20.4238 15.5955C22.2681 15.4929 24.2661 15.3732 25.4102 14.8431L25.3761 15.9033C25.3249 18.2119 22.6438 20.3152 19.5017 20.3152C17.3842 20.3152 16.2229 19.4089 16.2229 18.1093ZM13.0296 18.3829C13.0296 21.2045 15.3349 23 19.0406 23C22.2852 23 24.6759 21.5294 25.7859 19.0156L26.5202 17.3569L27.0838 17.5792C26.4861 18.6565 26.1958 19.6312 26.1958 20.4178C26.1958 21.803 27.1179 22.7264 28.9622 22.7264H30.687V19.9048H29.9014C28.8256 19.9048 28.5182 19.255 28.5182 18.1093V12.9621C28.5182 9.1145 25.7518 6.53234 21.1069 6.53234C16.5645 6.53234 13.337 8.9948 13.337 12.3294H16.4791C16.5132 10.4825 17.9648 9.2171 20.8678 9.2171C24.0612 9.2171 25.4102 10.4141 25.4102 12.5175V12.8424C24.4881 13.3896 22.2681 13.3554 19.6724 13.4922C15.0276 13.7487 13.0296 15.5613 13.0296 18.3829ZM0 9.62751H3.56905V17.7331C3.56905 21.0164 4.81565 22.7264 8.57254 22.7264H11.8171V19.9048H8.47008C7.30886 19.9048 6.67702 19.3063 6.67702 18.0922V9.62751H11.0316V6.80595H6.48918C5.15719 6.80595 4.67904 6.94275 2.8689 7.74647L2.62982 7.13086C4.95227 6.19034 7.36009 5.40372 7.36009 1.48773H4.25212C4.25212 4.06989 2.16875 6.53234 0 6.53234V9.62751ZM32.0531 22.7264H35.1611V0H32.0531V22.7264Z" fill="white"/>
</svg>
